<mxfile host="Electron" agent="Mozilla/5.0 (Windows NT 10.0; Win64; x64) AppleWebKit/537.36 (KHTML, like Gecko) draw.io/28.0.6 Chrome/138.0.7204.100 Electron/37.2.3 Safari/537.36" version="28.0.6">
  <diagram id="ZmtfrLZtzHNDNL0nzwDD" name="ページ1">
    <mxGraphModel dx="258" dy="169" grid="1" gridSize="10" guides="1" tooltips="1" connect="1" arrows="1" fold="1" page="1" pageScale="1" pageWidth="500" pageHeight="400" math="1" shadow="0">
      <root>
        <mxCell id="0" />
        <mxCell id="1" parent="0" />
        <mxCell id="X9fD4f41XkOiMu1gfX0i-8" value="" style="rounded=0;whiteSpace=wrap;html=1;fillColor=#FFCE9F;strokeColor=#d6b656;" parent="1" vertex="1">
          <mxGeometry x="23" y="202" width="440" height="160" as="geometry" />
        </mxCell>
        <mxCell id="X9fD4f41XkOiMu1gfX0i-7" value="" style="rounded=0;whiteSpace=wrap;html=1;fillColor=#d5e8d4;strokeColor=#82b366;" parent="1" vertex="1">
          <mxGeometry x="23" y="42" width="440" height="160" as="geometry" />
        </mxCell>
        <mxCell id="X9fD4f41XkOiMu1gfX0i-4" value="" style="endArrow=none;html=1;rounded=0;" parent="1" edge="1">
          <mxGeometry width="50" height="50" relative="1" as="geometry">
            <mxPoint x="63" y="82" as="sourcePoint" />
            <mxPoint x="303" y="202" as="targetPoint" />
          </mxGeometry>
        </mxCell>
        <mxCell id="X9fD4f41XkOiMu1gfX0i-5" value="" style="endArrow=none;html=1;rounded=0;" parent="1" edge="1">
          <mxGeometry width="50" height="50" relative="1" as="geometry">
            <mxPoint x="423" y="322" as="sourcePoint" />
            <mxPoint x="303" y="202" as="targetPoint" />
          </mxGeometry>
        </mxCell>
        <mxCell id="X9fD4f41XkOiMu1gfX0i-2" value="" style="ellipse;whiteSpace=wrap;html=1;fillColor=#FF0000;" parent="1" vertex="1">
          <mxGeometry x="53" y="72" width="20" height="20" as="geometry" />
        </mxCell>
        <mxCell id="X9fD4f41XkOiMu1gfX0i-6" value="" style="ellipse;whiteSpace=wrap;html=1;fillColor=#FF0000;" parent="1" vertex="1">
          <mxGeometry x="413" y="312" width="20" height="20" as="geometry" />
        </mxCell>
        <mxCell id="X9fD4f41XkOiMu1gfX0i-9" value="`A`" style="text;html=1;align=center;verticalAlign=middle;whiteSpace=wrap;rounded=0;fontSize=20;" parent="1" vertex="1">
          <mxGeometry x="53" y="52" width="60" height="30" as="geometry" />
        </mxCell>
        <mxCell id="X9fD4f41XkOiMu1gfX0i-10" value="`B`" style="text;html=1;align=center;verticalAlign=middle;whiteSpace=wrap;rounded=0;fontSize=20;" parent="1" vertex="1">
          <mxGeometry x="368" y="322" width="60" height="30" as="geometry" />
        </mxCell>
        <mxCell id="X9fD4f41XkOiMu1gfX0i-11" value="`v_A`" style="text;html=1;align=center;verticalAlign=middle;whiteSpace=wrap;rounded=0;fontSize=20;" parent="1" vertex="1">
          <mxGeometry x="383" y="82" width="60" height="30" as="geometry" />
        </mxCell>
        <mxCell id="X9fD4f41XkOiMu1gfX0i-12" value="`v_B`" style="text;html=1;align=center;verticalAlign=middle;whiteSpace=wrap;rounded=0;fontSize=20;" parent="1" vertex="1">
          <mxGeometry x="393" y="237" width="60" height="30" as="geometry" />
        </mxCell>
        <mxCell id="aPdHBWrHDVpkzCD8M092-1" value="" style="ellipse;whiteSpace=wrap;html=1;fillColor=#0000FF;" vertex="1" parent="1">
          <mxGeometry x="292" y="192" width="20" height="20" as="geometry" />
        </mxCell>
        <mxCell id="aPdHBWrHDVpkzCD8M092-2" value="`X`" style="text;html=1;align=center;verticalAlign=middle;whiteSpace=wrap;rounded=0;fontSize=20;" vertex="1" parent="1">
          <mxGeometry x="294" y="174" width="60" height="30" as="geometry" />
        </mxCell>
      </root>
    </mxGraphModel>
  </diagram>
</mxfile>
